<svg xmlns="http://www.w3.org/2000/svg" version="1.1" xmlns:xlink="http://www.w3.org/1999/xlink" xmlns:svgjs="http://svgjs.com/svgjs" height="56.66267746625826" width="288.9300079345703"><defs id="SvgjsDefs1023"></defs><g id="SvgjsG1024" rel="mainfill" name="main_text" xmlns:name="main_text" transform="translate(80.07999992370605,-199.33865943581617)" fill="#000000"><path d="M31.73 221.25Q31.73 219.56 31.35 217.83Q30.97 216.10 30.24 214.80Q29.51 213.49 28.47 212.65Q27.43 211.80 26.20 211.80Q24.05 211.80 22.40 214.18Q20.75 216.56 20.75 220.71Q20.75 222.86 21.13 224.71Q21.51 226.55 22.24 227.94Q22.97 229.32 24.01 230.09Q25.05 230.86 26.28 230.86Q28.74 230.86 30.24 228.24Q31.73 225.63 31.73 221.25M1.92 245.61L5.15 245.61L5.15 211.80L1.92 211.80L1.92 201.58L19.52 201.58L20.82 204.27Q21.36 203.89 22.24 203.31Q23.13 202.73 24.28 202.23Q25.43 201.73 26.89 201.35Q28.35 200.97 30.12 200.97Q34.58 200.97 38.00 202.58Q41.42 204.19 43.68 206.96Q45.95 209.73 47.10 213.38Q48.25 217.03 48.25 221.10Q48.25 225.71 46.91 229.36Q45.57 233.01 43.22 235.54Q40.88 238.08 37.65 239.46Q34.42 240.85 30.74 240.85Q28.35 240.85 26.55 240.46Q24.74 240.08 23.55 239.54Q22.36 239.00 21.67 238.50Q20.98 238.00 20.75 237.85L20.75 245.61L24.90 245.61L24.90 255.68L1.92 255.68L1.92 245.61ZM50.18 201.58L68.77 201.58L68.77 220.10Q68.77 225.09 69.65 227.44Q70.54 229.78 72.92 229.78Q74.92 229.78 76.34 228.17Q77.76 226.55 77.76 223.94L77.76 211.72L72.69 211.72L72.69 201.58L92.59 201.58L92.59 229.78L96.36 229.78L96.36 240L81.83 240L79.76 235.16Q79.14 235.85 78.26 236.89Q77.38 237.93 76.11 238.85Q74.84 239.77 73.07 240.42Q71.31 241.08 68.85 241.08Q64.47 241.08 61.51 239.92Q58.55 238.77 56.75 236.47Q54.94 234.16 54.17 230.63Q53.40 227.09 53.40 222.33L53.40 211.72L50.18 211.72L50.18 201.58ZM121.17 240L99.43 240L99.43 229.93L102.81 229.93L102.81 211.57L99.51 211.57L99.51 201.58L113.95 201.58L116.26 206.50Q117.03 205.12 117.87 203.89Q118.72 202.66 120.02 201.70Q121.33 200.74 123.25 200.20Q125.17 199.66 128.17 199.66L128.17 213.49Q122.94 213.49 120.14 215.22Q117.33 216.95 117.33 222.02L117.33 229.93L121.17 229.93L121.17 240ZM130.47 240L130.47 226.17L140.77 226.17Q140.77 227.71 141.73 228.70Q142.69 229.70 144.00 230.28Q145.30 230.86 146.68 231.09Q148.07 231.32 148.91 231.32Q150.07 231.32 151.18 230.82Q152.29 230.32 152.29 228.70Q152.29 227.63 150.72 226.98Q149.14 226.32 146.72 225.71Q144.30 225.09 141.54 224.25Q138.77 223.40 136.35 221.90Q133.93 220.41 132.35 217.99Q130.78 215.57 130.78 211.80Q130.78 208.88 132.12 206.77Q133.47 204.65 135.50 203.31Q137.54 201.96 139.88 201.31Q142.23 200.66 144.30 200.66Q148.22 200.66 151.37 202.43Q154.52 204.19 155.75 206.65L156.37 201.58L165.82 201.58L165.82 215.41L155.83 215.41Q155.83 214.18 155.14 213.14Q154.45 212.11 153.33 211.30Q152.22 210.49 150.83 210.03Q149.45 209.57 147.99 209.57Q146.76 209.57 145.88 210.23Q144.99 210.88 144.99 212.34Q144.99 213.64 146.61 214.41Q148.22 215.18 150.64 215.91Q153.06 216.64 155.91 217.52Q158.75 218.41 161.17 219.87Q163.59 221.33 165.20 223.59Q166.82 225.86 166.82 229.40Q166.82 232.09 165.63 234.24Q164.43 236.39 162.48 237.89Q160.52 239.39 157.90 240.15Q155.29 240.92 152.52 240.92Q148.38 240.92 145.26 239.23Q142.15 237.54 140.77 235.31L140.08 240L130.47 240ZM208.85 234.70Q204.54 238.39 199.78 239.88Q195.02 241.38 189.02 241.38Q185.41 241.38 181.80 240.19Q178.19 239.00 175.31 236.50Q172.43 234.01 170.58 230.05Q168.74 226.09 168.74 220.56Q168.74 215.87 170.35 212.15Q171.96 208.42 174.73 205.81Q177.50 203.19 181.26 201.85Q185.03 200.50 189.41 200.50Q194.17 200.50 197.82 201.89Q201.47 203.27 203.93 205.73Q206.39 208.19 207.62 211.53Q208.85 214.87 208.85 218.79Q208.85 220.33 208.62 221.83Q208.39 223.33 207.93 224.63L183.72 224.63Q183.87 225.40 184.22 226.48Q184.57 227.55 185.41 228.55Q186.26 229.55 187.72 230.24Q189.18 230.93 191.64 230.93Q192.63 230.93 193.83 230.86Q195.02 230.78 196.40 230.40Q197.78 230.01 199.32 229.28Q200.86 228.55 202.39 227.24L208.85 234.70M189.87 210.88Q188.10 210.88 186.99 211.57Q185.87 212.26 185.22 213.22Q184.57 214.18 184.30 215.26Q184.03 216.33 183.95 217.03L195.55 217.03Q195.55 215.95 195.32 214.84Q195.09 213.72 194.52 212.84Q193.94 211.95 192.83 211.42Q191.71 210.88 189.87 210.88Z" fill="#000000" style="fill: rgb(0, 0, 0);"></path></g><g id="SvgjsG1025" rel="mainfill" name="symbol" xmlns:name="symbol_mainfill" transform="translate(-40.09484427050379,-45.26419616930162) scale(1.471910698048615)" fill="#444444"><path d="M72.729,42.064c-0.153-2.441-2.098-4.385-4.539-4.538c-0.098-0.021-0.199-0.03-0.303-0.03h-1.151v-1.873  c0-0.104-0.011-0.205-0.03-0.303c-0.153-2.44-2.098-4.385-4.539-4.537c-0.098-0.021-0.199-0.031-0.303-0.031H32.112  c-0.104,0-0.205,0.011-0.304,0.031c-2.439,0.152-4.383,2.096-4.537,4.535c-0.021,0.1-0.031,0.201-0.031,0.306v28.752  c0,0.104,0.011,0.205,0.03,0.303c0.154,2.441,2.098,4.386,4.539,4.539c0.098,0.02,0.199,0.03,0.303,0.03h35.775  c0.104,0,0.205-0.011,0.303-0.03c2.441-0.153,4.386-2.098,4.539-4.539c0.02-0.098,0.03-0.199,0.03-0.303V42.367  C72.76,42.264,72.749,42.162,72.729,42.064z M30.241,35.624c0-1.032,0.839-1.872,1.871-1.872h29.752c1.032,0,1.872,0.84,1.872,1.871  v1.873H32.112c-1.031,0-1.871-0.839-1.872-1.869C30.24,35.625,30.241,35.625,30.241,35.624z M69.76,47.28h-9.904  c-0.828,0-1.5,0.671-1.5,1.5v9.544c0,0.828,0.672,1.5,1.5,1.5h9.904v4.552c0,1.032-0.84,1.872-1.872,1.872H32.112  c-1.032,0-1.872-0.84-1.872-1.872V40.119c0.487,0.203,1.019,0.311,1.569,0.346c0.098,0.02,0.199,0.031,0.303,0.031h35.775  c1.032,0,1.872,0.839,1.872,1.871V47.28z M69.759,50.28v6.544h-8.403V50.28H69.759z M65.24,55.305c0.46,0,0.91-0.189,1.23-0.52  c0.329-0.32,0.52-0.77,0.52-1.23c0-0.459-0.19-0.92-0.52-1.24c-0.641-0.649-1.82-0.649-2.471,0c-0.33,0.32-0.51,0.771-0.51,1.24  c0,0.461,0.18,0.91,0.51,1.24C64.33,55.115,64.78,55.305,65.24,55.305z" fill="#444444" style="fill: rgb(68, 68, 68);"></path></g></svg>