<svg xmlns="http://www.w3.org/2000/svg" version="1.1" xmlns:xlink="http://www.w3.org/1999/xlink" xmlns:svgjs="http://svgjs.com/svgjs" height="71.3699951171875" width="283.7899932861328"><defs id="SvgjsDefs1063"></defs><g id="SvgjsG1064" rel="mainfill" name="main_text" xmlns:name="main_text" transform="translate(76.86999988555908,-190.91000366210938)" fill="#687D77"><path d="M5.13 262.28L11.40 262.28L11.40 237.64C13.45 239.28 17.25 241.13 21.46 241.13C33.68 241.13 42.92 234.76 42.92 214.12C42.92 202.21 38.82 190.91 26.19 190.91C19.20 190.91 13.97 195.84 11.09 199.33C10.78 195.84 10.17 192.15 10.17 192.15L5.13 192.15ZM36.35 214.12C36.35 234.04 28.75 236.00 21.05 236.00C16.22 236.00 13.14 233.84 11.40 232.30L11.40 205.91C15.71 200.26 20.13 196.15 25.67 196.15C33.78 196.15 36.35 205.19 36.35 214.12ZM66.65 241.13C73.63 241.13 78.97 236.20 81.84 232.71C82.25 236.30 82.77 240 82.77 240L87.80 240L87.80 192.15L81.54 192.15L81.54 226.24C77.22 231.89 72.70 235.89 67.06 235.89C60.07 235.89 57.30 228.29 57.30 219.46L57.30 192.15L51.14 192.15L51.14 219.46C51.14 232.50 55.04 241.13 66.65 241.13ZM106.39 200.46C105.05 202.42 104.33 204.78 104.33 204.78L104.33 203.75C104.33 199.85 103.10 192.15 103.10 192.15L98.07 192.15L98.07 240L104.33 240L104.33 212.17C104.33 212.17 106.90 198.21 124.56 198.21L124.56 191.53C114.19 191.53 108.85 196.67 106.39 200.46ZM161.12 194.10C161.12 194.10 154.24 190.91 146.23 190.91C136.99 190.91 128.88 194.71 128.88 204.37C128.88 213.20 137.40 216.07 145.20 218.13C153.01 220.08 156.91 221.72 156.91 226.86C156.91 231.89 154.14 235.69 143.87 235.69C136.89 235.69 130.21 233.22 130.21 233.22L128.67 236.61C128.67 236.61 134.11 241.13 145.72 241.13C155.06 241.13 162.97 236.41 162.97 227.27C162.97 217.10 156.40 215.05 146.54 211.97C140.38 210.12 134.93 208.89 134.93 204.06C134.93 197.49 140.89 196.15 147.56 196.15C154.03 196.15 159.89 197.59 159.89 197.59ZM191.72 235.69C184.12 235.69 175.39 230.14 175.39 216.69L206.92 216.18C206.92 204.47 203.53 190.91 189.98 190.91C179.40 190.91 169.13 200.46 169.13 216.59C169.13 232.20 178.06 241.13 190.59 241.13C199.83 241.13 206.10 236.92 206.10 236.92L204.76 233.33C204.76 233.33 199.83 235.69 191.72 235.69ZM189.98 196.05C196.96 196.05 200.45 203.24 200.66 210.94C184.53 211.35 177.55 212.38 175.60 212.68C176.93 202.11 183.51 196.05 189.98 196.05Z" fill="#687D77" style="fill: rgb(104, 125, 119);"></path></g><g id="SvgjsG1065" rel="mainfill" name="symbol" xmlns:name="symbol_mainfill" transform="translate(-4.74060421222214,-4.762419396969085) scale(0.802393743286602)" fill="#687D77"><rect x="13" y="20" width="70" height="12"></rect><path d="M83.6903687,39H11.6285639c-3.6304941,7-5.7204866,13.9092522-5.7204866,21.7162285  c0,23.395153,18.6967049,33.9785271,41.7530556,33.9785271c23.0580978,0,41.7470932-10.6638336,41.7470932-34.0589905  C89.408226,52.8287926,87.3182373,46,83.6903687,39z" fill="#687D77" style="fill: rgb(104, 125, 119);"></path><circle cx="40.8255615" cy="11.4899597" r="5.3678317"></circle><circle cx="54.4898682" cy="11.4899597" r="5.3678317"></circle></g></svg>